<mxfile host="app.diagrams.net" agent="Mozilla/5.0 (Windows NT 10.0; Win64; x64) AppleWebKit/537.36 (KHTML, like Gecko) Chrome/128.0.0.0 Safari/537.36" version="24.7.10">
  <diagram name="Page-1" id="IcEsrA1X_ZVGOg5Jz0fT">
    <mxGraphModel dx="880" dy="1534" grid="1" gridSize="10" guides="1" tooltips="1" connect="1" arrows="1" fold="1" page="1" pageScale="1" pageWidth="850" pageHeight="1100" math="0" shadow="0">
      <root>
        <mxCell id="0" />
        <mxCell id="1" parent="0" />
        <mxCell id="b7iE6vTZGUmmBlqpOwpF-9" value="" style="rounded=0;whiteSpace=wrap;html=1;" vertex="1" parent="1">
          <mxGeometry x="70" y="40" width="660" height="450" as="geometry" />
        </mxCell>
        <mxCell id="b7iE6vTZGUmmBlqpOwpF-2" value="Elastic &amp;amp; Kibana" style="image;html=1;image=img/lib/clip_art/computers/Server_128x128.png" vertex="1" parent="1">
          <mxGeometry x="340" y="160" width="80" height="80" as="geometry" />
        </mxCell>
        <mxCell id="b7iE6vTZGUmmBlqpOwpF-15" style="rounded=0;orthogonalLoop=1;jettySize=auto;html=1;endArrow=classic;endFill=1;startArrow=classic;startFill=1;" edge="1" parent="1">
          <mxGeometry relative="1" as="geometry">
            <mxPoint x="560" y="191" as="sourcePoint" />
            <mxPoint x="420" y="191" as="targetPoint" />
          </mxGeometry>
        </mxCell>
        <mxCell id="b7iE6vTZGUmmBlqpOwpF-20" value="Alerts/tickets" style="edgeLabel;html=1;align=center;verticalAlign=middle;resizable=0;points=[];" vertex="1" connectable="0" parent="b7iE6vTZGUmmBlqpOwpF-15">
          <mxGeometry x="0.1143" y="1" relative="1" as="geometry">
            <mxPoint as="offset" />
          </mxGeometry>
        </mxCell>
        <mxCell id="b7iE6vTZGUmmBlqpOwpF-3" value="OS Ticket Server" style="image;html=1;image=img/lib/clip_art/computers/Server_128x128.png" vertex="1" parent="1">
          <mxGeometry x="560" y="160" width="80" height="80" as="geometry" />
        </mxCell>
        <mxCell id="b7iE6vTZGUmmBlqpOwpF-11" style="edgeStyle=orthogonalEdgeStyle;rounded=0;orthogonalLoop=1;jettySize=auto;html=1;" edge="1" parent="1" source="b7iE6vTZGUmmBlqpOwpF-4" target="b7iE6vTZGUmmBlqpOwpF-5">
          <mxGeometry relative="1" as="geometry" />
        </mxCell>
        <mxCell id="b7iE6vTZGUmmBlqpOwpF-16" value="Managed" style="edgeLabel;html=1;align=center;verticalAlign=middle;resizable=0;points=[];" vertex="1" connectable="0" parent="b7iE6vTZGUmmBlqpOwpF-11">
          <mxGeometry x="0.2184" y="1" relative="1" as="geometry">
            <mxPoint x="1" as="offset" />
          </mxGeometry>
        </mxCell>
        <mxCell id="b7iE6vTZGUmmBlqpOwpF-13" style="rounded=0;orthogonalLoop=1;jettySize=auto;html=1;entryX=1;entryY=0.25;entryDx=0;entryDy=0;" edge="1" parent="1">
          <mxGeometry relative="1" as="geometry">
            <mxPoint x="553.4310850439883" y="328" as="sourcePoint" />
            <mxPoint x="420" y="198" as="targetPoint" />
          </mxGeometry>
        </mxCell>
        <mxCell id="b7iE6vTZGUmmBlqpOwpF-19" value="Forward log via agent" style="edgeLabel;html=1;align=center;verticalAlign=middle;resizable=0;points=[];" vertex="1" connectable="0" parent="b7iE6vTZGUmmBlqpOwpF-13">
          <mxGeometry x="-0.2072" y="-1" relative="1" as="geometry">
            <mxPoint as="offset" />
          </mxGeometry>
        </mxCell>
        <mxCell id="b7iE6vTZGUmmBlqpOwpF-4" value="Ubuntu Server&lt;div&gt;SSH Enabled&lt;/div&gt;" style="image;html=1;image=img/lib/clip_art/computers/Server_128x128.png" vertex="1" parent="1">
          <mxGeometry x="550" y="310" width="90" height="81" as="geometry" />
        </mxCell>
        <mxCell id="b7iE6vTZGUmmBlqpOwpF-21" value="" style="edgeStyle=orthogonalEdgeStyle;rounded=0;orthogonalLoop=1;jettySize=auto;html=1;exitX=0.5;exitY=0.113;exitDx=0;exitDy=0;exitPerimeter=0;startArrow=classic;startFill=1;" edge="1" parent="1" source="b7iE6vTZGUmmBlqpOwpF-5">
          <mxGeometry relative="1" as="geometry">
            <mxPoint x="380" y="296" as="sourcePoint" />
            <mxPoint x="380" y="225" as="targetPoint" />
          </mxGeometry>
        </mxCell>
        <mxCell id="b7iE6vTZGUmmBlqpOwpF-22" value="Manage alerts" style="edgeLabel;html=1;align=center;verticalAlign=middle;resizable=0;points=[];" vertex="1" connectable="0" parent="b7iE6vTZGUmmBlqpOwpF-21">
          <mxGeometry x="0.1001" y="-1" relative="1" as="geometry">
            <mxPoint x="-1" y="1" as="offset" />
          </mxGeometry>
        </mxCell>
        <mxCell id="b7iE6vTZGUmmBlqpOwpF-5" value="Fleet Server" style="image;html=1;image=img/lib/clip_art/computers/Server_128x128.png" vertex="1" parent="1">
          <mxGeometry x="340" y="311" width="80" height="80" as="geometry" />
        </mxCell>
        <mxCell id="b7iE6vTZGUmmBlqpOwpF-10" style="edgeStyle=orthogonalEdgeStyle;rounded=0;orthogonalLoop=1;jettySize=auto;html=1;" edge="1" parent="1" source="b7iE6vTZGUmmBlqpOwpF-6" target="b7iE6vTZGUmmBlqpOwpF-5">
          <mxGeometry relative="1" as="geometry" />
        </mxCell>
        <mxCell id="b7iE6vTZGUmmBlqpOwpF-17" value="Managed" style="edgeLabel;html=1;align=center;verticalAlign=middle;resizable=0;points=[];" vertex="1" connectable="0" parent="b7iE6vTZGUmmBlqpOwpF-10">
          <mxGeometry x="0.0429" y="1" relative="1" as="geometry">
            <mxPoint as="offset" />
          </mxGeometry>
        </mxCell>
        <mxCell id="b7iE6vTZGUmmBlqpOwpF-12" style="rounded=0;orthogonalLoop=1;jettySize=auto;html=1;entryX=0;entryY=0.5;entryDx=0;entryDy=0;" edge="1" parent="1" target="b7iE6vTZGUmmBlqpOwpF-2">
          <mxGeometry relative="1" as="geometry">
            <mxPoint x="186" y="328.44444444444446" as="sourcePoint" />
            <mxPoint x="326" y="211" as="targetPoint" />
          </mxGeometry>
        </mxCell>
        <mxCell id="b7iE6vTZGUmmBlqpOwpF-18" value="Forward Log via agent" style="edgeLabel;html=1;align=center;verticalAlign=middle;resizable=0;points=[];" vertex="1" connectable="0" parent="b7iE6vTZGUmmBlqpOwpF-12">
          <mxGeometry x="-0.1978" y="1" relative="1" as="geometry">
            <mxPoint as="offset" />
          </mxGeometry>
        </mxCell>
        <mxCell id="b7iE6vTZGUmmBlqpOwpF-6" value="Windows Server&amp;nbsp;&lt;div&gt;RDP Enabled&lt;/div&gt;" style="image;html=1;image=img/lib/clip_art/computers/Server_128x128.png" vertex="1" parent="1">
          <mxGeometry x="120" y="311" width="80" height="80" as="geometry" />
        </mxCell>
        <mxCell id="b7iE6vTZGUmmBlqpOwpF-29" style="rounded=0;orthogonalLoop=1;jettySize=auto;html=1;" edge="1" parent="1" source="b7iE6vTZGUmmBlqpOwpF-7" target="b7iE6vTZGUmmBlqpOwpF-24">
          <mxGeometry relative="1" as="geometry" />
        </mxCell>
        <mxCell id="b7iE6vTZGUmmBlqpOwpF-7" value="C2 Server&lt;div&gt;Mythic&lt;/div&gt;" style="image;html=1;image=img/lib/clip_art/computers/Server_128x128.png" vertex="1" parent="1">
          <mxGeometry x="685" y="-87.5" width="80" height="80" as="geometry" />
        </mxCell>
        <mxCell id="b7iE6vTZGUmmBlqpOwpF-23" value="VPC" style="sketch=0;outlineConnect=0;gradientColor=none;html=1;whiteSpace=wrap;fontSize=12;fontStyle=0;shape=mxgraph.aws4.group;grIcon=mxgraph.aws4.group_vpc;strokeColor=#B6BABF;fillColor=none;verticalAlign=top;align=left;spacingLeft=30;fontColor=#B6BABF;dashed=0;" vertex="1" parent="1">
          <mxGeometry x="80" y="140" width="620" height="300" as="geometry" />
        </mxCell>
        <mxCell id="b7iE6vTZGUmmBlqpOwpF-24" value="Internet" style="ellipse;shape=cloud;whiteSpace=wrap;html=1;" vertex="1" parent="1">
          <mxGeometry x="340" y="-167.5" width="120" height="80" as="geometry" />
        </mxCell>
        <mxCell id="b7iE6vTZGUmmBlqpOwpF-25" value="SOC Analyst System" style="sketch=0;aspect=fixed;pointerEvents=1;shadow=0;dashed=0;html=1;strokeColor=none;labelPosition=center;verticalLabelPosition=bottom;verticalAlign=top;align=center;fillColor=#00188D;shape=mxgraph.azure.computer" vertex="1" parent="1">
          <mxGeometry x="100" y="-150" width="50" height="45" as="geometry" />
        </mxCell>
        <mxCell id="b7iE6vTZGUmmBlqpOwpF-26" style="edgeStyle=orthogonalEdgeStyle;rounded=0;orthogonalLoop=1;jettySize=auto;html=1;entryX=0.083;entryY=0.5;entryDx=0;entryDy=0;entryPerimeter=0;" edge="1" parent="1" source="b7iE6vTZGUmmBlqpOwpF-25" target="b7iE6vTZGUmmBlqpOwpF-24">
          <mxGeometry relative="1" as="geometry" />
        </mxCell>
        <mxCell id="b7iE6vTZGUmmBlqpOwpF-27" value="Attacker&amp;nbsp;&lt;div&gt;Kali Linux System&lt;/div&gt;" style="sketch=0;aspect=fixed;pointerEvents=1;shadow=0;dashed=0;html=1;strokeColor=none;labelPosition=center;verticalLabelPosition=bottom;verticalAlign=top;align=center;fillColor=#00188D;shape=mxgraph.azure.computer" vertex="1" parent="1">
          <mxGeometry x="700" y="-167.5" width="50" height="45" as="geometry" />
        </mxCell>
        <mxCell id="b7iE6vTZGUmmBlqpOwpF-28" style="rounded=0;orthogonalLoop=1;jettySize=auto;html=1;entryX=0.933;entryY=0.519;entryDx=0;entryDy=0;entryPerimeter=0;" edge="1" parent="1" source="b7iE6vTZGUmmBlqpOwpF-27" target="b7iE6vTZGUmmBlqpOwpF-24">
          <mxGeometry relative="1" as="geometry" />
        </mxCell>
        <mxCell id="b7iE6vTZGUmmBlqpOwpF-30" value="" style="outlineConnect=0;dashed=0;verticalLabelPosition=bottom;verticalAlign=top;align=center;html=1;shape=mxgraph.aws3.internet_gateway;fillColor=#F58534;gradientColor=none;" vertex="1" parent="1">
          <mxGeometry x="380" y="70" width="54.5" height="50" as="geometry" />
        </mxCell>
        <mxCell id="b7iE6vTZGUmmBlqpOwpF-31" style="rounded=0;orthogonalLoop=1;jettySize=auto;html=1;entryX=0.5;entryY=0;entryDx=0;entryDy=0;entryPerimeter=0;" edge="1" parent="1" source="b7iE6vTZGUmmBlqpOwpF-24" target="b7iE6vTZGUmmBlqpOwpF-30">
          <mxGeometry relative="1" as="geometry" />
        </mxCell>
        <mxCell id="b7iE6vTZGUmmBlqpOwpF-32" style="edgeStyle=orthogonalEdgeStyle;rounded=0;orthogonalLoop=1;jettySize=auto;html=1;entryX=0.528;entryY=0.097;entryDx=0;entryDy=0;entryPerimeter=0;" edge="1" parent="1">
          <mxGeometry relative="1" as="geometry">
            <mxPoint x="406.29999999999995" y="102" as="sourcePoint" />
            <mxPoint x="406.3600000000001" y="142.06999999999994" as="targetPoint" />
          </mxGeometry>
        </mxCell>
        <mxCell id="b7iE6vTZGUmmBlqpOwpF-36" value="VULTR" style="text;html=1;align=center;verticalAlign=middle;whiteSpace=wrap;rounded=0;" vertex="1" parent="1">
          <mxGeometry x="90" y="60" width="60" height="30" as="geometry" />
        </mxCell>
      </root>
    </mxGraphModel>
  </diagram>
</mxfile>
